<svg width="240" height="195" viewBox="0 0 240 195" fill="none" xmlns="http://www.w3.org/2000/svg">
<rect x="74" y="91" width="166" height="64" rx="25" fill="#D8027F"/>
<rect x="74" y="91" width="166" height="64" rx="25" fill="url(#paint0_linear)"/>
<path d="M110.404 131.104H99.748L97.768 136H90.496L101.62 110.8H108.64L119.8 136H112.384L110.404 131.104ZM108.316 125.848L105.076 117.784L101.836 125.848H108.316ZM132.837 129.304H128.949V136H121.821V110.8H133.341C135.621 110.8 137.601 111.184 139.281 111.952C140.961 112.696 142.257 113.776 143.169 115.192C144.081 116.584 144.537 118.228 144.537 120.124C144.537 121.948 144.105 123.544 143.241 124.912C142.401 126.256 141.189 127.312 139.605 128.08L145.041 136H137.409L132.837 129.304ZM137.337 120.124C137.337 118.948 136.965 118.036 136.221 117.388C135.477 116.74 134.373 116.416 132.909 116.416H128.949V123.796H132.909C134.373 123.796 135.477 123.484 136.221 122.86C136.965 122.212 137.337 121.3 137.337 120.124ZM168.701 130.492V136H148.469V110.8H168.233V116.308H155.525V120.556H166.721V125.884H155.525V130.492H168.701ZM189.541 131.104H178.885L176.905 136H169.633L180.757 110.8H187.777L198.937 136H191.521L189.541 131.104ZM187.453 125.848L184.213 117.784L180.973 125.848H187.453ZM209.814 136.504C207.774 136.504 205.794 136.252 203.874 135.748C201.954 135.244 200.394 134.572 199.194 133.732L201.534 128.476C202.662 129.22 203.97 129.82 205.458 130.276C206.946 130.732 208.41 130.96 209.85 130.96C212.586 130.96 213.954 130.276 213.954 128.908C213.954 128.188 213.558 127.66 212.766 127.324C211.998 126.964 210.75 126.592 209.021 126.208C207.126 125.8 205.542 125.368 204.27 124.912C202.998 124.432 201.906 123.676 200.994 122.644C200.082 121.612 199.625 120.22 199.625 118.468C199.625 116.932 200.046 115.552 200.886 114.328C201.726 113.08 202.974 112.096 204.63 111.376C206.31 110.656 208.362 110.296 210.786 110.296C212.442 110.296 214.074 110.488 215.682 110.872C217.29 111.232 218.706 111.772 219.93 112.492L217.734 117.784C215.334 116.488 213.006 115.84 210.75 115.84C209.334 115.84 208.302 116.056 207.654 116.488C207.006 116.896 206.682 117.436 206.682 118.108C206.682 118.78 207.066 119.284 207.834 119.62C208.602 119.956 209.838 120.304 211.542 120.664C213.462 121.072 215.046 121.516 216.294 121.996C217.566 122.452 218.658 123.196 219.57 124.228C220.506 125.236 220.974 126.616 220.974 128.368C220.974 129.88 220.554 131.248 219.714 132.472C218.874 133.696 217.614 134.68 215.934 135.424C214.254 136.144 212.214 136.504 209.814 136.504Z" fill="white"/>
<path d="M35.04 68.12H0.64V43H100.96V68.12H66.72V155H35.04V68.12Z" fill="#D8027F"/>
<path d="M35.04 68.12H0.64V43H100.96V68.12H66.72V155H35.04V68.12Z" fill="url(#paint1_linear)"/>
<defs>
<linearGradient id="paint0_linear" x1="157" y1="91" x2="157" y2="155" gradientUnits="userSpaceOnUse">
<stop stop-color="#FE736A"/>
<stop offset="1" stop-color="#FE736A" stop-opacity="0"/>
</linearGradient>
<linearGradient id="paint1_linear" x1="58.5" y1="0" x2="58.5" y2="195" gradientUnits="userSpaceOnUse">
<stop stop-color="#FE736A"/>
<stop offset="1" stop-color="white" stop-opacity="0"/>
</linearGradient>
</defs>
</svg>
